<?xml version="1.0" encoding="UTF-8"?>
<svg width="24px" height="24px" viewBox="0 0 24 24" version="1.1" xmlns="http://www.w3.org/2000/svg">
    <g stroke="none" stroke-width="1" fill="none" fill-rule="evenodd">
        <path d="M19,16 L19,13 C19,12.4477153 18.5522847,12 18,12 L12,12 C11.4477153,12 11,12.4477153 11,13 L11,16 L5,16 C4.44771525,16 4,16.4477153 4,17 L4,18 C4,19.1045695 4.8954305,20 6,20 L18,20 C19.1045695,20 20,19.1045695 20,18 L20,17 C20,16.4477153 19.5522847,16 19,16 Z" fill="#1E88E5"></path>
        <path d="M3,17 L3,7 C3,5.34314575 4.34314575,4 6,4 L18,4 C19.6568542,4 21,5.34314575 21,7 L21,17 L19,17 L19,7 C19,6.44771525 18.5522847,6 18,6 L6,6 C5.44771525,6 5,6.44771525 5,7 L5,17 L3,17 Z" fill="#1E88E5"></path>
        <rect fill="#64B5F6" x="7" y="8" width="4" height="2" rx="1"></rect>
        <rect fill="#64B5F6" x="13" y="8" width="4" height="2" rx="1"></rect>
        <rect fill="#64B5F6" x="7" y="14" width="10" height="1" rx="0.5"></rect>
    </g>
</svg> 